<svg xmlns="http://www.w3.org/2000/svg" xmlns:xlink="http://www.w3.org/1999/xlink" width="0" height="0" style="position:absolute">
    <symbol id="sale01"  viewBox="0 0 25 25">
        <g>
            <circle cx="12.5" cy="12.5" r="12.5" fill="#ff6749"/>
            <path fill="#ffffff" d="M8.773,17.840 C8.687,17.940 8.564,17.991 8.439,17.991 C8.341,17.991 8.243,17.959 8.161,17.894 C7.977,17.744 7.952,17.478 8.106,17.298 L16.786,7.161 C16.939,6.982 17.212,6.957 17.397,7.107 C17.581,7.256 17.606,7.522 17.453,7.702 L8.773,17.840 ZM10.175,11.233 C8.979,11.233 8.005,10.285 8.005,9.121 C8.005,7.956 8.979,7.009 10.175,7.009 C11.372,7.009 12.345,7.956 12.345,9.121 C12.345,10.285 11.372,11.233 10.175,11.233 ZM10.175,7.854 C9.458,7.854 8.873,8.422 8.873,9.121 C8.873,9.820 9.458,10.388 10.175,10.388 C10.893,10.388 11.477,9.820 11.477,9.121 C11.477,8.422 10.893,7.854 10.175,7.854 ZM15.817,13.767 C17.014,13.767 17.987,14.715 17.987,15.879 C17.987,17.044 17.014,17.991 15.817,17.991 C14.621,17.991 13.647,17.044 13.647,15.879 C13.647,14.715 14.621,13.767 15.817,13.767 ZM15.817,17.147 C16.535,17.147 17.119,16.578 17.119,15.879 C17.119,15.181 16.535,14.612 15.817,14.612 C15.099,14.612 14.515,15.181 14.515,15.879 C14.515,16.578 15.099,17.147 15.817,17.147 Z" />
        </g>
    </symbol>

<symbol version="1.1" id="logo-header" x="0px" y="0px"
	 viewBox="0 0 169.3 132" style="enable-background:new 0 0 169.3 132;" xml:space="preserve">
<style type="text/css">
	.st0{fill-rule:evenodd;clip-rule:evenodd;fill:#00926A;}
	.st1{fill-rule:evenodd;clip-rule:evenodd;fill:#EC1C24;}
</style>
<g id="logo">
	<g id="letters_1_">
		<path d="M89.3,89.4c0,0-0.2,1.1-0.3,1.7c-0.3,1.5-0.6,2.9-0.8,4.4c-0.7,3.4-1.3,6.8-2,10.2c-0.7,3.2-1.3,6.3-1.7,9.5
			c-0.3,2.6-0.7,5.3,0.2,7.8c0,0.1,0.3,0.5,0.3,0.6c3.3,4.5,8.9,4.8,13.3,2.3c0.9-0.5,2.5-1.7,3.3-3.1c0.3-0.6,0.5-1.3,0.5-1.3
			s-1.4-0.6-1.9-1.2c-0.4-0.5-0.7-1.2-0.8-1.8c-0.2-1.1-0.1-2.3,0.1-3.4c1-6.2,2.4-12.4,3.6-18.6c0.4-2.2,0.9-4.3,1.3-6.6
			c0.1-0.6,0.4-2,0.4-2L89.3,89.4z M99.9,122.3c0,0-1.1,1.1-1.3,1.4c-1,0.9-2.3,1.4-3.6,1.6c-3.3,0.7-6.4,0.3-8.6-2.9
			c-0.9-2-0.5-4.7-0.2-6.8c0.3-2.6,0.8-5.3,1.4-7.9c0.6-2.8,1.2-5.6,1.7-8.3c0.3-1.6,0.6-3.2,0.9-4.8c0.2-1,0.5-2.4,0.7-3.5
			c0,0,11-1,11.7-1.1c0,0.1-0.5,2.6-0.7,3.8c-1,5.3-2.2,10.7-3.3,16.1c-0.7,3.5-2.4,8.5,0.2,11.7C99.1,121.7,99.9,122.3,99.9,122.3"
			/>
		<path d="M148.3,89.4c0,0-0.2,1.1-0.3,1.7c-0.3,1.5-0.6,2.9-0.8,4.4c-0.7,3.4-1.3,6.8-2,10.2c-0.7,3.2-1.3,6.3-1.7,9.5
			c-0.3,2.6-0.7,5.3,0.2,7.8c0,0.1,0.3,0.5,0.3,0.6c3.3,4.5,8.9,4.8,13.3,2.3c0.9-0.5,2.5-1.7,3.3-3.1c0.3-0.6,0.5-1.3,0.5-1.3
			s-1.4-0.6-1.9-1.2c-0.4-0.5-0.7-1.2-0.8-1.8c-0.2-1.1-0.1-2.3,0.1-3.4c1-6.2,2.4-12.4,3.6-18.6c0.4-2.2,0.9-4.3,1.3-6.6
			c0.1-0.6,0.4-2,0.4-2L148.3,89.4z M158.9,122.3c0,0-1.1,1.1-1.3,1.4c-1,0.9-2.3,1.4-3.6,1.6c-3.3,0.7-6.4,0.3-8.6-2.9
			c-0.9-2-0.5-4.7-0.2-6.8c0.3-2.6,0.8-5.3,1.4-7.9c0.6-2.8,1.2-5.6,1.7-8.3c0.3-1.6,0.6-3.2,0.9-4.8c0.2-1,0.5-2.4,0.7-3.5
			c0,0,11-1,11.7-1.1c0,0.1-0.5,2.6-0.7,3.8c-1,5.3-2.2,10.7-3.3,16.1c-0.7,3.5-2.4,8.5,0.2,11.7
			C158.2,121.7,158.9,122.3,158.9,122.3"/>
		<path d="M45.2,87.8c-1.5,0.1-4.6,0.5-6.3,0.7c-1.8,0.2-3.5,0.4-5.3,0.5c-0.6,0.1-0.8,0-1.4-0.2c-1.6-0.6-3.4-0.9-5.1-0.9
			c-6.2-0.2-12.3,1.8-16.7,6.3c-5.1,5.2-6.9,12.3-6.6,19.4c0.1,2.9,0.4,6.2,2,8.7c1.7,2.7,4.7,4.1,7.8,4.6c3.5,0.6,7.4,0.5,10.6-1.4
			c0.5-0.3,1.6-0.9,1.9-1.5c0,0,0,0,0,0c0.2,0.3,0.4,0.6,0.7,0.8c1.1,1.1,2.6,1.8,4.1,2.1c3.5,0.7,7.5,0,10.2-2.5
			c0.7-0.6,2.3-2.4,2.3-2.4s-0.6-0.4-0.8-0.6c-0.5-0.4-1.4-1-1.8-1.5c-0.6-0.7-0.9-1.6-1-2.5c0-2.5,0.7-5,1.2-7.4
			c0.8-4,1.5-8,2.3-12c0.5-2.8,1.2-5.6,1.6-8.3C45,88.9,45.2,87.8,45.2,87.8z M43.1,90c-0.5,2.7-1,5.5-1.6,8.2
			c-0.8,4-1.5,7.9-2.3,11.9c-0.5,2.4-1.1,4.8-1.2,7.3c0,0.1,0,0.1,0,0.2c0,0.1,0,0.1,0,0.2c0.1,1.1,0.4,2.1,1.1,3
			c0.2,0.3,0.5,0.6,0.8,0.9c0.2,0.2,0.4,0.3,0.7,0.5c0,0,0.2,0.1,0.2,0.1c-0.2,0.2-0.2,0.2-0.3,0.4c-2.1,2.6-6.4,3.3-9.5,2.5
			c-1.5-0.4-2.8-1.3-3.6-2.3c-0.5-0.6-1-1.3-1-1.3s-1.6,1.4-2.1,1.8c-0.7,0.5-1.4,0.9-2.2,1.3c-1.7,0.7-3.5,0.9-5.3,0.9
			c-3.1-0.1-6.6-0.8-8.8-3.2c-2-2.3-2.3-5.8-2.4-8.7c-0.3-6.9,1.6-13.8,6.7-18.7c4.4-4.2,11.1-6,17.1-5c1.6,0.3,2.8,1,4.4,0.9
			c1.7-0.2,3.3-0.3,5-0.5c0.9-0.1,1.7-0.2,2.6-0.3c0.4,0,1.2-0.1,1.7-0.2C43.1,89.9,43.1,90,43.1,90z"/>
		<path d="M27.1,91.5c-3.5-0.3-5.5,1.9-6.8,4.9c-1.3,3.1-1.9,6.5-2.5,9.8c-0.8,3.9-1.3,7.9-1,11.9c0.2,2.5,1,5.7,4.2,5.3
			c4.1-0.5,5.7-5.1,6.3-8.6c1.2-6.7,2.7-13.4,3.6-20.2C31.2,92.7,28.8,91.6,27.1,91.5z M29.2,94.5C29.1,95,29,95.4,29,95.9
			c-0.6,3.5-1.3,7-1.9,10.4c-0.5,2.7-1,5.4-1.4,8c-0.4,2.4-1.8,7.8-5.3,7.3c-2.4-0.3-1.9-5.5-1.8-7c0.1-3.5,0.7-6.9,1.4-10.3
			c0.6-2.6,1.1-5.4,2.1-7.9c0.6-1.3,1.3-2.6,2.7-3.1c0.7-0.3,1.7-0.3,2.4-0.2c0.3,0.1,0.7,0.2,1,0.3c0.3,0.1,0.9,0.5,1,0.7
			C29.2,94.3,29.2,94.4,29.2,94.5z"/>
		<path d="M143,90c-1.1-1.1-2.6-1.7-4.1-1.9c-3.1-0.5-6.2,0.5-8.3,2.7c-0.1,0.1-0.3,0.3-0.4,0.5c0.1,0.2,0.1,0.4,0.2,0.5
			c0.7,3.2,0.2,6.8-0.4,9.9c-0.6,3.3-1.5,6.6-2.8,9.8c-0.7,1.6-1.4,3.1-2.3,4.6c-0.4,0.7-0.8,1.3-1.3,1.9c-0.1,0.1-0.3,0.4-0.5,0.5
			c0-0.7,0.1-1.6,0.1-2.2c0-0.8,0.1-1.6,0.1-2.4c0.1-1.8,0.1-3.5,0.1-5.3c0-3.3-0.1-6.6-0.4-9.9c-0.3-2.8-0.7-5.8-2.7-8
			c-2-2.2-4.5-2.9-7.4-2.8c-1.2,0.1-2.4,0.1-3.5,0.5c-1.1,0.3-2.6,1.1-3.4,2c-0.2,0.2-0.5,0.6-0.5,0.6c0.3,0.5,0.7,1.3,1,1.9
			c0.6,1.3,1.1,2.4,1.3,3.7c0.6,3,0.8,6.1,1.1,9.1c0.5,4.8,0.6,9.7,0.8,14.5c0,0.9,0.1,1.8,0.1,2.7c0,0.8,0,3.4,0,3.4
			s1.6,0.4,2.6,0.6c2.9,0.5,6.1,0.5,8.9-0.5c5.9-2,10.3-7.3,13.9-12.2c2.3-3.2,4.4-6.5,6-10.1c1.5-3.4,2.9-7.2,2.8-10.9
			C144.2,92,143.9,90.9,143,90z M141.6,98.4c-1.9,6.4-5.4,12.3-9.6,17.4c-3.6,4.4-8.3,9.2-14.3,9.6c-1.5,0.1-3.2,0-4.7-0.2
			c-0.5-0.1-1.3-0.3-1.3-0.3s-0.1-2.3-0.1-3c-0.1-2.8-0.2-5.7-0.3-8.5c-0.2-4.3-0.6-8.7-1.1-13c-0.3-2.4-0.5-4.9-1.5-7.2
			c-0.2-0.4-1.1-2-1.1-2c0.4-0.4,1.9-1,2.1-1.1c0.6-0.2,1.2-0.3,1.7-0.4c3.1-0.4,6.1,0,8.1,2.8c1.7,2.4,1.7,5.8,1.9,8.6
			c0.2,3,0.2,6.1,0.2,9.1c0,1.5-0.1,2.9-0.1,4.4c-0.1,1.6-0.2,3.3-0.3,4.9c0,0.8,0.6,1.5,1.4,1.4c0.7,0,1.9-1.3,2.4-2
			c2-2.6,3.4-5.7,4.5-8.8c1.2-3.3,2-6.7,2.5-10.1c0.4-2.7,0.7-5.7,0.2-8.4c1.8-1.7,5.1-2.6,7.8-1.5c1.7,0.7,2.5,1.6,2.4,3.4
			C142.4,95.2,142.1,96.8,141.6,98.4z"/>
		<path d="M84.2,90c-1.1-1.1-2.6-1.7-4.1-1.9c-3.1-0.5-6.2,0.5-8.3,2.7c-0.1,0.1-0.3,0.3-0.4,0.5c0.1,0.2,0.1,0.4,0.2,0.5
			c0.7,3.2,0.2,6.8-0.4,9.9c-0.6,3.3-1.5,6.6-2.8,9.8c-0.7,1.6-1.4,3.1-2.3,4.6c-0.4,0.7-0.8,1.3-1.3,1.9c-0.1,0.1-0.3,0.4-0.5,0.5
			c0-0.7,0.1-1.6,0.1-2.2c0-0.8,0.1-1.6,0.1-2.4c0.1-1.8,0.1-3.5,0.1-5.3c0-3.3-0.1-6.6-0.4-9.9c-0.3-2.8-0.7-5.8-2.7-8
			c-2-2.2-4.5-2.9-7.4-2.8c-1.2,0.1-2.4,0.1-3.5,0.5c-1.1,0.3-2.6,1.1-3.4,2C47,90.7,46.7,91,46.7,91c0.3,0.5,0.7,1.3,1,1.9
			c0.6,1.3,1.1,2.4,1.3,3.7c0.6,3,0.8,6.1,1.1,9.1c0.5,4.8,0.6,9.7,0.8,14.5c0,0.9,0.1,1.8,0.1,2.7c0,0.8,0,3.4,0,3.4
			s1.6,0.4,2.6,0.6c2.9,0.5,6.1,0.5,8.9-0.5c5.9-2,10.3-7.3,13.9-12.2c2.3-3.2,4.4-6.5,6-10.1c1.5-3.4,2.9-7.2,2.8-10.9
			C85.4,92,85.1,90.9,84.2,90z M82.8,98.4c-1.9,6.4-5.4,12.3-9.6,17.4c-3.6,4.4-8.3,9.2-14.3,9.6c-1.5,0.1-3.2,0-4.7-0.2
			c-0.5-0.1-1.3-0.3-1.3-0.3s-0.1-2.3-0.1-3c-0.1-2.8-0.2-5.7-0.3-8.5c-0.2-4.3-0.6-8.7-1.1-13c-0.3-2.4-0.5-4.9-1.5-7.2
			c-0.2-0.4-1.1-2-1.1-2c0.4-0.4,1.9-1,2.1-1.1c0.6-0.2,1.2-0.3,1.7-0.4c3.1-0.4,6.1,0,8.1,2.8c1.7,2.4,1.7,5.8,1.9,8.6
			c0.2,3,0.2,6.1,0.2,9.1c0,1.5-0.1,2.9-0.1,4.4c-0.1,1.6-0.2,3.3-0.3,4.9c0,0.8,0.6,1.5,1.4,1.4c0.7,0,1.9-1.3,2.4-2
			c2-2.6,3.4-5.7,4.5-8.8c1.2-3.3,2-6.7,2.5-10.1c0.4-2.7,0.7-5.7,0.2-8.4c1.8-1.7,5.1-2.6,7.8-1.5c1.7,0.7,2.5,1.6,2.4,3.4
			C83.6,95.2,83.3,96.8,82.8,98.4z"/>
		<path d="M165.9,79.4c-0.3-4.1-4.6-5.5-8.2-5.4c-3.9,0.1-7.9,2.1-8.2,6.3c0,0.1,0,0.1,0,0.2c0.1,2,0.7,3.4,2.5,4.5
			c1.9,1.1,4.3,1.4,6.5,1.3C162.3,85.9,166.2,83.8,165.9,79.4z M158.4,84.5c-1.5,0.1-3.2,0-4.6-0.5c-1.6-0.6-2.5-1.6-2.5-3.4
			c0.1-3.3,3.3-4.6,6.2-4.7c2.5-0.1,6.4,0.4,6.7,3.6C164.4,82.7,161.4,84.2,158.4,84.5z"/>
	</g>
	<g>
		<path class="st0" d="M102.1,83.5c-2.6-13.6,2.1-21.6,8.4-27c5.6-4.8,12.8-8.1,16.1-13.8C127.9,73.8,115.4,73.8,102.1,83.5"/>
		<path class="st1" d="M91.1,83.5c1.3-24.4-3.5-38.3-11.5-47.5C67.1,21.6,47.2,18.1,37.2,5.8c-0.9,20.1,2.7,36.5,8.3,48.2
			C56.5,76.8,76.3,84.6,91.1,83.5z"/>
		<path d="M124.8,43c0-1.1-0.3-3.9-0.3-3.9s-1.9,2.3-2.6,3.1c-1,1.2-1.9,2.3-3,3.4c-4.5,4.2-10.1,7.2-14.3,11.8
			c-2.5,2.7-4.4,6-5.4,9.6c-1.3,4.8-0.9,9.9,0,14.7c0.1,0.3,0.3,1.2,0.3,1.2s0.8-0.6,1.1-0.8c4.8-3.3,10.1-5.6,14.7-9.1
			c4.9-3.7,7.5-9.1,8.6-15C124.8,53,125,47.9,124.8,43z M122.9,50c-0.1,2.2-0.3,4.3-0.6,6.5c-0.9,5.6-3,10.8-7.5,14.5
			c-4.3,3.5-9.5,5.8-14.1,8.8c-1.1-7-0.6-14.1,3.9-19.9c3.6-4.6,8.7-7.6,13.1-11.2c1.1-0.9,2.1-1.8,3.1-2.8c0.5-0.5,0.9-0.9,1.3-1.4
			c0.1-0.1,0.5-0.5,0.8-0.9c0,0.2,0,0.4,0,0.5c0,0.6,0,1.2,0,1.8C123,47.4,123,48.7,122.9,50z"/>
		<path d="M56.3,15.9c-4.4-2.3-8.8-4.8-12.4-8.1C43,7,41.9,6,41.1,5.2c-0.5-0.5-1.8-2-1.8-2S39.1,9,39.1,9.8
			C39,15.4,39.3,21,40,26.5c2,15.8,7.6,31.7,19.4,42.8c8.2,7.7,19.2,12.7,30.5,12.9c1.2,0,2.3,0,3.5-0.1c0.2,0,0.8-0.1,0.8-0.1
			s0.1-0.5,0.1-0.8c0.8-16.1-0.6-33.8-11.2-46.9C76.1,25.7,66,21,56.3,15.9z M92.6,80.4c-10.2,0.5-20.3-3.1-28.4-9.3
			c-11.8-9-18.4-23-21.3-37.2c-1-4.8-1.6-9.8-1.9-14.7c-0.2-2.7-0.2-5.4-0.2-8.1c0-0.7,0-1.5,0-2.2c0-0.3,0-1.4,0-1.4
			s0.4,0.3,0.5,0.5c3.4,3.4,7.5,6,11.6,8.3c9,5,18.8,9,26.1,16.5c10.5,10.7,13.5,26,13.6,40.5C92.8,75.6,92.7,78,92.6,80.4z"/>
	</g>
</g>
</symbol>
<symbol version="1.1" id="logo-footer" xmlns="http://www.w3.org/2000/svg" xmlns:xlink="http://www.w3.org/1999/xlink" x="0px" y="0px"
	 viewBox="0 0 169.3 61.3" style="enable-background:new 0 0 169.3 61.3;" xml:space="preserve">
<g id="logo_1_">
	<g id="letters_2_">
		<path fill="#FFFFFF;" d="M89.3,18.8c0,0-0.2,1.1-0.3,1.7c-0.3,1.5-0.6,2.9-0.8,4.4c-0.7,3.4-1.3,6.8-2,10.2c-0.7,3.2-1.3,6.3-1.7,9.5
			c-0.3,2.6-0.7,5.3,0.2,7.8c0,0.1,0.3,0.5,0.3,0.6c3.3,4.5,8.9,4.8,13.3,2.3c0.9-0.5,2.5-1.7,3.3-3.1c0.3-0.6,0.5-1.3,0.5-1.3
			s-1.4-0.6-1.9-1.2c-0.4-0.5-0.7-1.2-0.8-1.8c-0.2-1.1-0.1-2.3,0.1-3.4c1-6.2,2.4-12.4,3.6-18.6c0.4-2.2,0.9-4.3,1.3-6.6
			c0.1-0.6,0.4-2,0.4-2L89.3,18.8z M99.9,51.6c0,0-1.1,1.1-1.3,1.4c-1,0.9-2.3,1.4-3.6,1.6c-3.3,0.7-6.4,0.3-8.6-2.9
			c-0.9-2-0.5-4.7-0.2-6.8c0.3-2.6,0.8-5.3,1.4-7.9c0.6-2.8,1.2-5.6,1.7-8.3c0.3-1.6,0.6-3.2,0.9-4.8c0.2-1,0.5-2.4,0.7-3.5
			c0,0,11-1,11.7-1.1c0,0.1-0.5,2.6-0.7,3.8c-1,5.3-2.2,10.7-3.3,16.1c-0.7,3.5-2.4,8.5,0.2,11.7C99.1,51.1,99.9,51.6,99.9,51.6"/>
		<path fill="#FFFFFF;" d="M148.3,18.8c0,0-0.2,1.1-0.3,1.7c-0.3,1.5-0.6,2.9-0.8,4.4c-0.7,3.4-1.3,6.8-2,10.2c-0.7,3.2-1.3,6.3-1.7,9.5
			c-0.3,2.6-0.7,5.3,0.2,7.8c0,0.1,0.3,0.5,0.3,0.6c3.3,4.5,8.9,4.8,13.3,2.3c0.9-0.5,2.5-1.7,3.3-3.1c0.3-0.6,0.5-1.3,0.5-1.3
			s-1.4-0.6-1.9-1.2c-0.4-0.5-0.7-1.2-0.8-1.8c-0.2-1.1-0.1-2.3,0.1-3.4c1-6.2,2.4-12.4,3.6-18.6c0.4-2.2,0.9-4.3,1.3-6.6
			c0.1-0.6,0.4-2,0.4-2L148.3,18.8z M158.9,51.6c0,0-1.1,1.1-1.3,1.4c-1,0.9-2.3,1.4-3.6,1.6c-3.3,0.7-6.4,0.3-8.6-2.9
			c-0.9-2-0.5-4.7-0.2-6.8c0.3-2.6,0.8-5.3,1.4-7.9c0.6-2.8,1.2-5.6,1.7-8.3c0.3-1.6,0.6-3.2,0.9-4.8c0.2-1,0.5-2.4,0.7-3.5
			c0,0,11-1,11.7-1.1c0,0.1-0.5,2.6-0.7,3.8c-1,5.3-2.2,10.7-3.3,16.1c-0.7,3.5-2.4,8.5,0.2,11.7C158.2,51.1,158.9,51.6,158.9,51.6"
			/>
		<path fill="#FFFFFF;" d="M45.2,17.2c-1.5,0.1-4.6,0.5-6.3,0.7c-1.8,0.2-3.5,0.4-5.3,0.5c-0.6,0.1-0.8,0-1.4-0.2
			c-1.6-0.6-3.4-0.9-5.1-0.9c-6.2-0.2-12.3,1.8-16.7,6.3C5.4,28.8,3.6,35.9,3.9,43c0.1,2.9,0.4,6.2,2,8.7c1.7,2.7,4.7,4.1,7.8,4.6
			c3.5,0.6,7.4,0.5,10.6-1.4c0.5-0.3,1.6-0.9,1.9-1.5c0,0,0,0,0,0c0.2,0.3,0.4,0.6,0.7,0.8c1.1,1.1,2.6,1.8,4.1,2.1
			c3.5,0.7,7.5,0,10.2-2.5c0.7-0.6,2.3-2.4,2.3-2.4s-0.6-0.4-0.8-0.6c-0.5-0.4-1.4-1-1.8-1.5c-0.6-0.7-0.9-1.6-1-2.5
			c0-2.5,0.7-5,1.2-7.4c0.8-4,1.5-8,2.3-12c0.5-2.8,1.2-5.6,1.6-8.3C45,18.3,45.2,17.2,45.2,17.2z M43.1,19.4
			c-0.5,2.7-1,5.5-1.6,8.2c-0.8,4-1.5,7.9-2.3,11.9c-0.5,2.4-1.1,4.8-1.2,7.3c0,0.1,0,0.1,0,0.2c0,0.1,0,0.1,0,0.2
			c0.1,1.1,0.4,2.1,1.1,3c0.2,0.3,0.5,0.6,0.8,0.9c0.2,0.2,0.4,0.3,0.7,0.5c0,0,0.2,0.1,0.2,0.1c-0.2,0.2-0.2,0.2-0.3,0.4
			c-2.1,2.6-6.4,3.3-9.5,2.5c-1.5-0.4-2.8-1.3-3.6-2.3c-0.5-0.6-1-1.3-1-1.3s-1.6,1.4-2.1,1.8c-0.7,0.5-1.4,0.9-2.2,1.3
			c-1.7,0.7-3.5,0.9-5.3,0.9c-3.1-0.1-6.6-0.8-8.8-3.2c-2-2.3-2.3-5.8-2.4-8.7C5.3,36,7.2,29.1,12.4,24.3c4.4-4.2,11.1-6,17.1-5
			c1.6,0.3,2.8,1,4.4,0.9c1.7-0.2,3.3-0.3,5-0.5c0.9-0.1,1.7-0.2,2.6-0.3c0.4,0,1.2-0.1,1.7-0.2C43.1,19.3,43.1,19.3,43.1,19.4z"/>
		<path fill="#FFFFFF;" d="M27.1,20.8c-3.5-0.3-5.5,1.9-6.8,4.9c-1.3,3.1-1.9,6.5-2.5,9.8c-0.8,3.9-1.3,7.9-1,11.9
			c0.2,2.5,1,5.7,4.2,5.3c4.1-0.5,5.7-5.1,6.3-8.6C28.5,37.5,30,30.8,31,24C31.2,22,28.8,20.9,27.1,20.8z M29.2,23.8
			c-0.1,0.5-0.2,0.9-0.3,1.4c-0.6,3.5-1.3,7-1.9,10.4c-0.5,2.7-1,5.4-1.4,8c-0.4,2.4-1.8,7.8-5.3,7.3c-2.4-0.3-1.9-5.5-1.8-7
			c0.1-3.5,0.7-6.9,1.4-10.3c0.6-2.6,1.1-5.4,2.1-7.9c0.6-1.3,1.3-2.6,2.7-3.1c0.7-0.3,1.7-0.3,2.4-0.2c0.3,0.1,0.7,0.2,1,0.3
			c0.3,0.1,0.9,0.5,1,0.7C29.2,23.7,29.2,23.7,29.2,23.8z"/>
		<path fill="#FFFFFF;" d="M143,19.3c-1.1-1.1-2.6-1.7-4.1-1.9c-3.1-0.5-6.2,0.5-8.3,2.7c-0.1,0.1-0.3,0.3-0.4,0.5
			c0.1,0.2,0.1,0.4,0.2,0.5c0.7,3.2,0.2,6.8-0.4,9.9c-0.6,3.3-1.5,6.6-2.8,9.8c-0.7,1.6-1.4,3.1-2.3,4.6c-0.4,0.7-0.8,1.3-1.3,1.9
			c-0.1,0.1-0.3,0.4-0.5,0.5c0-0.7,0.1-1.6,0.1-2.2c0-0.8,0.1-1.6,0.1-2.4c0.1-1.8,0.1-3.5,0.1-5.3c0-3.3-0.1-6.6-0.4-9.9
			c-0.3-2.8-0.7-5.8-2.7-8c-2-2.2-4.5-2.9-7.4-2.8c-1.2,0.1-2.4,0.1-3.5,0.5c-1.1,0.3-2.6,1.1-3.4,2c-0.2,0.2-0.5,0.6-0.5,0.6
			c0.3,0.5,0.7,1.3,1,1.9c0.6,1.3,1.1,2.4,1.3,3.7c0.6,3,0.8,6.1,1.1,9.1c0.5,4.8,0.6,9.7,0.8,14.5c0,0.9,0.1,1.8,0.1,2.7
			c0,0.8,0,3.4,0,3.4s1.6,0.4,2.6,0.6c2.9,0.5,6.1,0.5,8.9-0.5c5.9-2,10.3-7.3,13.9-12.2c2.3-3.2,4.4-6.5,6-10.1
			c1.5-3.4,2.9-7.2,2.8-10.9C144.2,21.4,143.9,20.2,143,19.3z M141.6,27.8c-1.9,6.4-5.4,12.3-9.6,17.4c-3.6,4.4-8.3,9.2-14.3,9.6
			c-1.5,0.1-3.2,0-4.7-0.2c-0.5-0.1-1.3-0.3-1.3-0.3s-0.1-2.3-0.1-3c-0.1-2.8-0.2-5.7-0.3-8.5c-0.2-4.3-0.6-8.7-1.1-13
			c-0.3-2.4-0.5-4.9-1.5-7.2c-0.2-0.4-1.1-2-1.1-2c0.4-0.4,1.9-1,2.1-1.1c0.6-0.2,1.2-0.3,1.7-0.4c3.1-0.4,6.1,0,8.1,2.8
			c1.7,2.4,1.7,5.8,1.9,8.6c0.2,3,0.2,6.1,0.2,9.1c0,1.5-0.1,2.9-0.1,4.4c-0.1,1.6-0.2,3.3-0.3,4.9c0,0.8,0.6,1.5,1.4,1.4
			c0.7,0,1.9-1.3,2.4-2c2-2.6,3.4-5.7,4.5-8.8c1.2-3.3,2-6.7,2.5-10.1c0.4-2.7,0.7-5.7,0.2-8.4c1.8-1.7,5.1-2.6,7.8-1.5
			c1.7,0.7,2.5,1.6,2.4,3.4C142.4,24.5,142.1,26.2,141.6,27.8z"/>
		<path fill="#FFFFFF;" d="M84.2,19.3c-1.1-1.1-2.6-1.7-4.1-1.9c-3.1-0.5-6.2,0.5-8.3,2.7c-0.1,0.1-0.3,0.3-0.4,0.5
			c0.1,0.2,0.1,0.4,0.2,0.5c0.7,3.2,0.2,6.8-0.4,9.9c-0.6,3.3-1.5,6.6-2.8,9.8c-0.7,1.6-1.4,3.1-2.3,4.6c-0.4,0.7-0.8,1.3-1.3,1.9
			c-0.1,0.1-0.3,0.4-0.5,0.5c0-0.7,0.1-1.6,0.1-2.2c0-0.8,0.1-1.6,0.1-2.4c0.1-1.8,0.1-3.5,0.1-5.3c0-3.3-0.1-6.6-0.4-9.9
			c-0.3-2.8-0.7-5.8-2.7-8c-2-2.2-4.5-2.9-7.4-2.8c-1.2,0.1-2.4,0.1-3.5,0.5c-1.1,0.3-2.6,1.1-3.4,2c-0.2,0.2-0.5,0.6-0.5,0.6
			c0.3,0.5,0.7,1.3,1,1.9c0.6,1.3,1.1,2.4,1.3,3.7c0.6,3,0.8,6.1,1.1,9.1c0.5,4.8,0.6,9.7,0.8,14.5c0,0.9,0.1,1.8,0.1,2.7
			c0,0.8,0,3.4,0,3.4s1.6,0.4,2.6,0.6c2.9,0.5,6.1,0.5,8.9-0.5c5.9-2,10.3-7.3,13.9-12.2c2.3-3.2,4.4-6.5,6-10.1
			c1.5-3.4,2.9-7.2,2.8-10.9C85.4,21.4,85.1,20.2,84.2,19.3z M82.8,27.8c-1.9,6.4-5.4,12.3-9.6,17.4c-3.6,4.4-8.3,9.2-14.3,9.6
			c-1.5,0.1-3.2,0-4.7-0.2c-0.5-0.1-1.3-0.3-1.3-0.3s-0.1-2.3-0.1-3c-0.1-2.8-0.2-5.7-0.3-8.5c-0.2-4.3-0.6-8.7-1.1-13
			c-0.3-2.4-0.5-4.9-1.5-7.2c-0.2-0.4-1.1-2-1.1-2c0.4-0.4,1.9-1,2.1-1.1c0.6-0.2,1.2-0.3,1.7-0.4c3.1-0.4,6.1,0,8.1,2.8
			c1.7,2.4,1.7,5.8,1.9,8.6c0.2,3,0.2,6.1,0.2,9.1c0,1.5-0.1,2.9-0.1,4.4c-0.1,1.6-0.2,3.3-0.3,4.9c0,0.8,0.6,1.5,1.4,1.4
			c0.7,0,1.9-1.3,2.4-2c2-2.6,3.4-5.7,4.5-8.8c1.2-3.3,2-6.7,2.5-10.1c0.4-2.7,0.7-5.7,0.2-8.4c1.8-1.7,5.1-2.6,7.8-1.5
			c1.7,0.7,2.5,1.6,2.4,3.4C83.6,24.5,83.3,26.2,82.8,27.8z"/>
		<path fill="#FFFFFF;"  d="M165.3,8.7c-0.3-4.1-4.6-5.5-8.2-5.4c-3.9,0.1-7.9,2.1-8.2,6.3c0,0.1,0,0.1,0,0.2c0.1,2,0.7,3.4,2.5,4.5
			c1.9,1.1,4.3,1.4,6.5,1.3C161.8,15.3,165.6,13.1,165.3,8.7z M157.9,13.8c-1.5,0.1-3.2,0-4.6-0.5c-1.6-0.6-2.5-1.6-2.5-3.4
			c0.1-3.3,3.3-4.6,6.2-4.7c2.5-0.1,6.4,0.4,6.7,3.6C163.8,12.1,160.8,13.6,157.9,13.8z"/>
		<path fill="#FFFFFF;" d="M106.3,8.7c-0.3-4.1-4.6-5.5-8.2-5.4c-3.9,0.1-7.9,2.1-8.2,6.3c0,0.1,0,0.1,0,0.2c0.1,2,0.7,3.4,2.5,4.5
			c1.9,1.1,4.3,1.4,6.5,1.3C102.8,15.3,106.6,13.1,106.3,8.7z M98.8,13.8c-1.5,0.1-3.2,0-4.6-0.5c-1.6-0.6-2.5-1.6-2.5-3.4
			c0.1-3.3,3.3-4.6,6.2-4.7c2.5-0.1,6.4,0.4,6.7,3.6C104.8,12.1,101.8,13.6,98.8,13.8z"/>
	</g>
</g>
</symbol>
<symbol id="icon-fb" width="19" height="37.94" viewBox="0 0 19 37.94">
  <path id="Forma_1" data-name="Forma 1" class="cls-1" d="M274.118,1584.34c0-.23.033-0.74,0.1-1.52a5.7,5.7,0,0,1,.892-2.47,6.938,6.938,0,0,1,2.551-2.31,10.309,10.309,0,0,1,5.09-1.02h6.243v6.84h-4.571a1.855,1.855,0,0,0-1.256.51,1.358,1.358,0,0,0-.571.95v4.26h6.4c-0.067.83-.142,1.64-0.225,2.42l-0.254,2.07c-0.1.7-.2,1.35-0.3,1.94h-5.66v18.97h-8.43v-18.97h-4.112v-6.43h4.112v-5.24Z" transform="translate(-270 -1577.03)"/>
</symbol>
<symbol id="icon-vk" width="26" height="15" viewBox="0 0 58 33">
  <path id="Forma_1" data-name="Forma 1" class="cls-1" d="M231.426,1590.8c0.825-1.07,1.48-1.92,1.963-2.56q5.225-6.93,4.53-8.86l-0.181-.3a1.771,1.771,0,0,0-.937-0.5,4.787,4.787,0,0,0-1.932-.07l-8.7.06a2.442,2.442,0,0,0-.6.01,2.33,2.33,0,0,0-.393.09c-0.061.03-.111,0.06-0.151,0.08l-0.12.09a1.362,1.362,0,0,0-.332.32,2,2,0,0,0-.3.52,49.292,49.292,0,0,1-3.232,6.78q-1.118,1.86-2.053,3.24a15.59,15.59,0,0,1-1.57,2.01,11.1,11.1,0,0,1-1.148,1.04,1.113,1.113,0,0,1-.785.33q-0.272-.06-0.513-0.12a1.985,1.985,0,0,1-.68-0.73,3.423,3.423,0,0,1-.347-1.18c-0.06-.47-0.1-0.88-0.105-1.22s-0.006-.82.015-1.44,0.03-1.05.03-1.27c0-.76.015-1.59,0.045-2.48s0.056-1.6.076-2.13,0.03-1.07.03-1.65a6.958,6.958,0,0,0-.106-1.37,5.066,5.066,0,0,0-.317-0.97,1.608,1.608,0,0,0-.62-0.72,3.787,3.787,0,0,0-1.011-.41,20.207,20.207,0,0,0-4.077-.39c-3.745-.04-6.15.21-7.217,0.73a4.064,4.064,0,0,0-1.148.9q-0.544.66-.15,0.72a3.675,3.675,0,0,1,2.566,1.3l0.181,0.36a5.714,5.714,0,0,1,.423,1.38,14.1,14.1,0,0,1,.272,2.2,23.328,23.328,0,0,1,0,3.77q-0.151,1.56-.287,2.43a4.8,4.8,0,0,1-.407,1.42,5.776,5.776,0,0,1-.363.66,0.515,0.515,0,0,1-.15.15,2.269,2.269,0,0,1-.816.15,1.923,1.923,0,0,1-1.027-.42,6.845,6.845,0,0,1-1.253-1.16,15.535,15.535,0,0,1-1.465-2.06c-0.543-.88-1.107-1.93-1.691-3.13l-0.482-.88c-0.3-.56-0.715-1.37-1.239-2.45s-0.987-2.11-1.389-3.12a1.98,1.98,0,0,0-.724-0.96l-0.151-.09a1.753,1.753,0,0,0-.484-0.25,2.763,2.763,0,0,0-.694-0.2l-8.275.06a2.111,2.111,0,0,0-1.721.57l-0.12.18a0.957,0.957,0,0,0-.091.48,2.447,2.447,0,0,0,.181.82q1.813,4.245,3.941,8.19t3.7,6.35c1.047,1.61,2.114,3.12,3.2,4.55s1.807,2.34,2.159,2.74,0.629,0.7.83,0.9l0.755,0.72a17.787,17.787,0,0,0,2.129,1.74,36,36,0,0,0,3.111,1.98,16.5,16.5,0,0,0,3.97,1.6,13.82,13.82,0,0,0,4.409.5h3.473a2.363,2.363,0,0,0,1.6-.67l0.121-.15a2,2,0,0,0,.227-0.55,3.09,3.09,0,0,0,.106-0.83,9.828,9.828,0,0,1,.2-2.33,6.057,6.057,0,0,1,.513-1.57,3.86,3.86,0,0,1,.65-0.89,3.151,3.151,0,0,1,.513-0.44c0.1-.04.181-0.08,0.241-0.1a1.9,1.9,0,0,1,1.707.47,9.993,9.993,0,0,1,1.842,1.74c0.574,0.7,1.263,1.47,2.069,2.34a14.058,14.058,0,0,0,2.113,1.92l0.6,0.37a7.341,7.341,0,0,0,1.57.66,3.407,3.407,0,0,0,1.691.15l7.731-.12a3.511,3.511,0,0,0,1.781-.38,1.5,1.5,0,0,0,.755-0.83,2.315,2.315,0,0,0,.016-1.02,3.791,3.791,0,0,0-.212-0.8,3.74,3.74,0,0,0-.2-0.37,29.938,29.938,0,0,0-5.767-6.66l-0.061-.06-0.03-.03-0.03-.03h-0.03a34.05,34.05,0,0,1-2.446-2.47,2.313,2.313,0,0,1-.423-2.44A22.4,22.4,0,0,1,231.426,1590.8Z" transform="translate(-180 -1577)"/>
</symbol>
<symbol id="icon-google" width="45" height="50" viewBox="0 0 45 50">
  <path id="Forma_1" data-name="Forma 1" class="cls-1" d="M139.544,1570H127.279c-5.466,0-9.249,1.19-12.655,3.98a11.965,11.965,0,0,0-4.276,8.91c0,5.06,3.893,10.44,11.108,10.44,0.694,0,1.462-.07,2.14-0.13l-0.1.24a5.5,5.5,0,0,0-.565,2.35,6.657,6.657,0,0,0,1.89,4.37l0.117,0.15-0.208.02c-2.979.2-8.524,0.57-12.575,3.04-4.784,2.82-5.156,6.93-5.156,8.12,0,4.73,4.449,9.51,14.389,9.51,11.558,0,17.606-6.33,17.606-12.57,0-4.62-2.73-6.9-5.63-9.32l-2.446-1.89a3.574,3.574,0,0,1-1.7-2.82,4.505,4.505,0,0,1,1.772-3.16l0.087-.09c2.641-2.06,5.635-4.4,5.635-9.46a11.158,11.158,0,0,0-4.747-8.98h4.07a0.239,0.239,0,0,0,.142-0.04l3.5-2.18a0.274,0.274,0,0,0,.114-0.3A0.267,0.267,0,0,0,139.544,1570Zm-14.874,48.21c-7.045,0-11.779-3.26-11.779-8.12,0-3.17,1.936-5.47,5.749-6.84a27.221,27.221,0,0,1,7.035-1.07,12.062,12.062,0,0,1,1.537.06c4.929,3.48,7.3,5.31,7.3,8.79C134.511,1615.46,130.74,1618.21,124.67,1618.21Zm-0.066-26.74c-5.913,0-8.367-7.71-8.367-11.84a7.482,7.482,0,0,1,1.471-4.92,6.2,6.2,0,0,1,4.688-2.2c5.429,0,8.431,7.24,8.431,12.24a6.789,6.789,0,0,1-1.672,4.86A6.907,6.907,0,0,1,124.6,1591.47Zm32.131,2.35h-6.463v-6.39a0.265,0.265,0,0,0-.266-0.26h-2.78a0.265,0.265,0,0,0-.266.26v6.39h-6.43a0.265,0.265,0,0,0-.266.26v2.8a0.265,0.265,0,0,0,.266.26h6.43v6.43a0.265,0.265,0,0,0,.266.26h2.78a0.265,0.265,0,0,0,.266-0.26v-6.43h6.463a0.265,0.265,0,0,0,.266-0.26v-2.8A0.265,0.265,0,0,0,156.735,1593.82Z" transform="translate(-107 -1570)"/>
</symbol>

<symbol id="icon-insta" x="0px" y="0px"
	 viewBox="-229 353.7 135.2 135.2" style="enable-background:new -229 353.7 135.2 135.2;" xml:space="preserve">
<g>
	<path fill="#FFFFFF;" d="M-131.1,353.7h-60.6c-20.6,0-37.3,16.7-37.3,37.3v60.6c0,20.6,16.7,37.3,37.3,37.3h60.6
		c20.6,0,37.3-16.7,37.3-37.3V391C-93.8,370.4-110.5,353.7-131.1,353.7L-131.1,353.7z M-105.8,451.6c0,14-11.4,25.3-25.3,25.3h-60.6
		c-14,0-25.3-11.4-25.3-25.3V391c0-14,11.4-25.3,25.3-25.3h60.6c14,0,25.3,11.4,25.3,25.3V451.6z"/>
	<path fill="#FFFFFF;" d="M-161.4,386.5c-19.2,0-34.9,15.6-34.9,34.8c0,19.2,15.6,34.9,34.9,34.9c19.2,0,34.9-15.6,34.9-34.9
		C-126.5,402.1-142.2,386.5-161.4,386.5L-161.4,386.5z M-161.4,444.2c-12.6,0-22.9-10.2-22.9-22.8c0-12.6,10.2-22.9,22.9-22.9
		c12.6,0,22.9,10.3,22.9,22.9C-138.5,433.9-148.8,444.2-161.4,444.2L-161.4,444.2z"/>
	<path fill="#FFFFFF;" d="M-125.1,376.3c-2.3,0-4.6,0.9-6.2,2.6c-1.6,1.6-2.6,3.9-2.6,6.2c0,2.3,0.9,4.6,2.6,6.2
		c1.6,1.6,3.9,2.6,6.2,2.6c2.3,0,4.6-0.9,6.2-2.6c1.6-1.6,2.6-3.9,2.6-6.2c0-2.3-0.9-4.6-2.6-6.2
		C-120.5,377.2-122.7,376.3-125.1,376.3L-125.1,376.3z"/>
</g>
</symbol>
<symbol id="icon-yt" x="0px" y="0px"
	 viewBox="0 0 248 174.5" style="enable-background:new 0 0 248 174.5;" xml:space="preserve">
<g>
	<g>
		<path fill="#FFFFFF;" d="M238.3,15c-8.9-10.6-25.5-15-57-15H66.7c-32.3,0-49.1,4.6-58,15.9C0,27,0,43.3,0,65.8v42.9
			c0,43.6,10.3,65.8,66.7,65.8h114.6c27.4,0,42.5-3.8,52.4-13.2c10.1-9.6,14.4-25.4,14.4-52.6V65.8C248,42,247.3,25.7,238.3,15
			L238.3,15z M159.2,93.2l-52,27.2c-1.2,0.6-2.4,0.9-3.7,0.9c-1.4,0-2.9-0.4-4.1-1.2c-2.4-1.4-3.9-4-3.9-6.8V59.1
			c0-2.8,1.5-5.4,3.8-6.8c2.4-1.5,5.4-1.6,7.8-0.3l52,27c2.6,1.4,4.3,4.1,4.3,7.1C163.5,89.1,161.9,91.8,159.2,93.2L159.2,93.2z
			 M159.2,93.2"/>
	</g>
</g>
</symbol>

<symbol id="icon-in" x="0px" y="0px"
	 viewBox="261 386.9 72 68.8" style="enable-background:new 261 386.9 72 68.8;" xml:space="preserve">
<g>
	<path fill="#FFFFFF;" d="M333,429.1v26.6h-15.4v-24.8c0-6.2-2.2-10.5-7.8-10.5c-4.3,0-6.8,2.9-7.9,5.6c-0.4,1-0.5,2.4-0.5,3.8v25.9H286
		c0,0,0.2-42.1,0-46.4h15.4v6.6c0,0.1-0.1,0.1-0.1,0.2h0.1v-0.2c2.1-3.2,5.7-7.7,13.9-7.7C325.4,408.2,333,414.8,333,429.1
		L333,429.1z M269.7,386.9c-5.3,0-8.7,3.5-8.7,8s3.4,8,8.5,8h0.1c5.4,0,8.7-3.6,8.7-8C278.3,390.4,275,386.9,269.7,386.9
		L269.7,386.9z M261.9,455.7h15.4v-46.4h-15.4V455.7z"/>
</g>
</symbol>

</svg>


