<svg xmlns="http://www.w3.org/2000/svg" width="50" height="51" viewBox="0 0 50 51">
  <metadata><?xpacket begin="﻿" id="W5M0MpCehiHzreSzNTczkc9d"?>
<x:xmpmeta xmlns:x="adobe:ns:meta/" x:xmptk="Adobe XMP Core 5.6-c138 79.159824, 2016/09/14-01:09:01        ">
   <rdf:RDF xmlns:rdf="http://www.w3.org/1999/02/22-rdf-syntax-ns#">
      <rdf:Description rdf:about=""/>
   </rdf:RDF>
</x:xmpmeta>
                                                                                                    
                                                                                                    
                                                                                                    
                                                                                                    
                                                                                                    
                                                                                                    
                                                                                                    
                                                                                                    
                                                                                                    
                                                                                                    
                                                                                                    
                                                                                                    
                                                                                                    
                                                                                                    
                                                                                                    
                                                                                                    
                                                                                                    
                                                                                                    
                                                                                                    
                                                                                                    
                           
<?xpacket end="w"?></metadata>
<defs>
    <style>
      .cls-1 {
        fill-rule: evenodd;
      }
    </style>
  </defs>
  <path id="Forma_1" data-name="Forma 1" class="cls-1" d="M139.544,1570H127.279c-5.466,0-9.249,1.19-12.655,3.98a11.965,11.965,0,0,0-4.276,8.91c0,5.06,3.893,10.44,11.108,10.44,0.694,0,1.462-.07,2.14-0.13l-0.1.24a5.5,5.5,0,0,0-.565,2.35,6.657,6.657,0,0,0,1.89,4.37l0.117,0.15-0.208.02c-2.979.2-8.524,0.57-12.575,3.04-4.784,2.82-5.156,6.93-5.156,8.12,0,4.73,4.449,9.51,14.389,9.51,11.558,0,17.606-6.33,17.606-12.57,0-4.62-2.73-6.9-5.63-9.32l-2.446-1.89a3.574,3.574,0,0,1-1.7-2.82,4.505,4.505,0,0,1,1.772-3.16l0.087-.09c2.641-2.06,5.635-4.4,5.635-9.46a11.158,11.158,0,0,0-4.747-8.98h4.07a0.239,0.239,0,0,0,.142-0.04l3.5-2.18a0.274,0.274,0,0,0,.114-0.3A0.267,0.267,0,0,0,139.544,1570Zm-14.874,48.21c-7.045,0-11.779-3.26-11.779-8.12,0-3.17,1.936-5.47,5.749-6.84a27.221,27.221,0,0,1,7.035-1.07,12.062,12.062,0,0,1,1.537.06c4.929,3.48,7.3,5.31,7.3,8.79C134.511,1615.46,130.74,1618.21,124.67,1618.21Zm-0.066-26.74c-5.913,0-8.367-7.71-8.367-11.84a7.482,7.482,0,0,1,1.471-4.92,6.2,6.2,0,0,1,4.688-2.2c5.429,0,8.431,7.24,8.431,12.24a6.789,6.789,0,0,1-1.672,4.86A6.907,6.907,0,0,1,124.6,1591.47Zm32.131,2.35h-6.463v-6.39a0.265,0.265,0,0,0-.266-0.26h-2.78a0.265,0.265,0,0,0-.266.26v6.39h-6.43a0.265,0.265,0,0,0-.266.26v2.8a0.265,0.265,0,0,0,.266.26h6.43v6.43a0.265,0.265,0,0,0,.266.26h2.78a0.265,0.265,0,0,0,.266-0.26v-6.43h6.463a0.265,0.265,0,0,0,.266-0.26v-2.8A0.265,0.265,0,0,0,156.735,1593.82Z" transform="translate(-107 -1570)"/>
</svg>
