<?xml version="1.0" encoding="utf-8"?>
<!-- Generator: Adobe Illustrator 19.0.1, SVG Export Plug-In . SVG Version: 6.00 Build 0)  -->
<svg version="1.1" id="Слой_1" xmlns="http://www.w3.org/2000/svg" xmlns:xlink="http://www.w3.org/1999/xlink" x="0px" y="0px"
	 viewBox="-229 353.7 135.2 135.2" style="enable-background:new -229 353.7 135.2 135.2;" xml:space="preserve">
<style type="text/css">
	.st0{fill:#FFFFFF;}
</style>
<g>
	<path class="st0" d="M-131.1,353.7h-60.6c-20.6,0-37.3,16.7-37.3,37.3v60.6c0,20.6,16.7,37.3,37.3,37.3h60.6
		c20.6,0,37.3-16.7,37.3-37.3V391C-93.8,370.4-110.5,353.7-131.1,353.7L-131.1,353.7z M-105.8,451.6c0,14-11.4,25.3-25.3,25.3h-60.6
		c-14,0-25.3-11.4-25.3-25.3V391c0-14,11.4-25.3,25.3-25.3h60.6c14,0,25.3,11.4,25.3,25.3V451.6z"/>
	<path class="st0" d="M-161.4,386.5c-19.2,0-34.9,15.6-34.9,34.8c0,19.2,15.6,34.9,34.9,34.9c19.2,0,34.9-15.6,34.9-34.9
		C-126.5,402.1-142.2,386.5-161.4,386.5L-161.4,386.5z M-161.4,444.2c-12.6,0-22.9-10.2-22.9-22.8c0-12.6,10.2-22.9,22.9-22.9
		c12.6,0,22.9,10.3,22.9,22.9C-138.5,433.9-148.8,444.2-161.4,444.2L-161.4,444.2z"/>
	<path class="st0" d="M-125.1,376.3c-2.3,0-4.6,0.9-6.2,2.6c-1.6,1.6-2.6,3.9-2.6,6.2c0,2.3,0.9,4.6,2.6,6.2
		c1.6,1.6,3.9,2.6,6.2,2.6c2.3,0,4.6-0.9,6.2-2.6c1.6-1.6,2.6-3.9,2.6-6.2c0-2.3-0.9-4.6-2.6-6.2
		C-120.5,377.2-122.7,376.3-125.1,376.3L-125.1,376.3z"/>
</g>
</svg>
