<?xml version="1.0" encoding="utf-8"?>
<!-- Generator: Adobe Illustrator 19.0.1, SVG Export Plug-In . SVG Version: 6.00 Build 0)  -->
<svg version="1.1" id="Слой_1" xmlns="http://www.w3.org/2000/svg" xmlns:xlink="http://www.w3.org/1999/xlink" x="0px" y="0px"
	 viewBox="261 386.9 72 68.8" style="enable-background:new 261 386.9 72 68.8;" xml:space="preserve">
<style type="text/css">
	.st0{fill:#FFFFFF;}
</style>
<g>
	<path class="st0" d="M333,429.1v26.6h-15.4v-24.8c0-6.2-2.2-10.5-7.8-10.5c-4.3,0-6.8,2.9-7.9,5.6c-0.4,1-0.5,2.4-0.5,3.8v25.9H286
		c0,0,0.2-42.1,0-46.4h15.4v6.6c0,0.1-0.1,0.1-0.1,0.2h0.1v-0.2c2.1-3.2,5.7-7.7,13.9-7.7C325.4,408.2,333,414.8,333,429.1
		L333,429.1z M269.7,386.9c-5.3,0-8.7,3.5-8.7,8s3.4,8,8.5,8h0.1c5.4,0,8.7-3.6,8.7-8C278.3,390.4,275,386.9,269.7,386.9
		L269.7,386.9z M261.9,455.7h15.4v-46.4h-15.4V455.7z"/>
</g>
</svg>
