<?xml version="1.0" encoding="utf-8"?>
<!-- Generator: Adobe Illustrator 21.0.1, SVG Export Plug-In . SVG Version: 6.00 Build 0)  -->
<svg version="1.1" id="cover" xmlns="http://www.w3.org/2000/svg" xmlns:xlink="http://www.w3.org/1999/xlink" x="0px" y="0px"
	 viewBox="0 0 169.3 61.3" style="enable-background:new 0 0 169.3 61.3;" xml:space="preserve">
<style type="text/css">
	.st0{fill:#FFFFFF;}
</style>
<g id="logo_1_">
	<g id="letters_2_">
		<path class="st0" d="M89.3,18.8c0,0-0.2,1.1-0.3,1.7c-0.3,1.5-0.6,2.9-0.8,4.4c-0.7,3.4-1.3,6.8-2,10.2c-0.7,3.2-1.3,6.3-1.7,9.5
			c-0.3,2.6-0.7,5.3,0.2,7.8c0,0.1,0.3,0.5,0.3,0.6c3.3,4.5,8.9,4.8,13.3,2.3c0.9-0.5,2.5-1.7,3.3-3.1c0.3-0.6,0.5-1.3,0.5-1.3
			s-1.4-0.6-1.9-1.2c-0.4-0.5-0.7-1.2-0.8-1.8c-0.2-1.1-0.1-2.3,0.1-3.4c1-6.2,2.4-12.4,3.6-18.6c0.4-2.2,0.9-4.3,1.3-6.6
			c0.1-0.6,0.4-2,0.4-2L89.3,18.8z M99.9,51.6c0,0-1.1,1.1-1.3,1.4c-1,0.9-2.3,1.4-3.6,1.6c-3.3,0.7-6.4,0.3-8.6-2.9
			c-0.9-2-0.5-4.7-0.2-6.8c0.3-2.6,0.8-5.3,1.4-7.9c0.6-2.8,1.2-5.6,1.7-8.3c0.3-1.6,0.6-3.2,0.9-4.8c0.2-1,0.5-2.4,0.7-3.5
			c0,0,11-1,11.7-1.1c0,0.1-0.5,2.6-0.7,3.8c-1,5.3-2.2,10.7-3.3,16.1c-0.7,3.5-2.4,8.5,0.2,11.7C99.1,51.1,99.9,51.6,99.9,51.6"/>
		<path class="st0" d="M148.3,18.8c0,0-0.2,1.1-0.3,1.7c-0.3,1.5-0.6,2.9-0.8,4.4c-0.7,3.4-1.3,6.8-2,10.2c-0.7,3.2-1.3,6.3-1.7,9.5
			c-0.3,2.6-0.7,5.3,0.2,7.8c0,0.1,0.3,0.5,0.3,0.6c3.3,4.5,8.9,4.8,13.3,2.3c0.9-0.5,2.5-1.7,3.3-3.1c0.3-0.6,0.5-1.3,0.5-1.3
			s-1.4-0.6-1.9-1.2c-0.4-0.5-0.7-1.2-0.8-1.8c-0.2-1.1-0.1-2.3,0.1-3.4c1-6.2,2.4-12.4,3.6-18.6c0.4-2.2,0.9-4.3,1.3-6.6
			c0.1-0.6,0.4-2,0.4-2L148.3,18.8z M158.9,51.6c0,0-1.1,1.1-1.3,1.4c-1,0.9-2.3,1.4-3.6,1.6c-3.3,0.7-6.4,0.3-8.6-2.9
			c-0.9-2-0.5-4.7-0.2-6.8c0.3-2.6,0.8-5.3,1.4-7.9c0.6-2.8,1.2-5.6,1.7-8.3c0.3-1.6,0.6-3.2,0.9-4.8c0.2-1,0.5-2.4,0.7-3.5
			c0,0,11-1,11.7-1.1c0,0.1-0.5,2.6-0.7,3.8c-1,5.3-2.2,10.7-3.3,16.1c-0.7,3.5-2.4,8.5,0.2,11.7C158.2,51.1,158.9,51.6,158.9,51.6"
			/>
		<path class="st0" d="M45.2,17.2c-1.5,0.1-4.6,0.5-6.3,0.7c-1.8,0.2-3.5,0.4-5.3,0.5c-0.6,0.1-0.8,0-1.4-0.2
			c-1.6-0.6-3.4-0.9-5.1-0.9c-6.2-0.2-12.3,1.8-16.7,6.3C5.4,28.8,3.6,35.9,3.9,43c0.1,2.9,0.4,6.2,2,8.7c1.7,2.7,4.7,4.1,7.8,4.6
			c3.5,0.6,7.4,0.5,10.6-1.4c0.5-0.3,1.6-0.9,1.9-1.5c0,0,0,0,0,0c0.2,0.3,0.4,0.6,0.7,0.8c1.1,1.1,2.6,1.8,4.1,2.1
			c3.5,0.7,7.5,0,10.2-2.5c0.7-0.6,2.3-2.4,2.3-2.4s-0.6-0.4-0.8-0.6c-0.5-0.4-1.4-1-1.8-1.5c-0.6-0.7-0.9-1.6-1-2.5
			c0-2.5,0.7-5,1.2-7.4c0.8-4,1.5-8,2.3-12c0.5-2.8,1.2-5.6,1.6-8.3C45,18.3,45.2,17.2,45.2,17.2z M43.1,19.4
			c-0.5,2.7-1,5.5-1.6,8.2c-0.8,4-1.5,7.9-2.3,11.9c-0.5,2.4-1.1,4.8-1.2,7.3c0,0.1,0,0.1,0,0.2c0,0.1,0,0.1,0,0.2
			c0.1,1.1,0.4,2.1,1.1,3c0.2,0.3,0.5,0.6,0.8,0.9c0.2,0.2,0.4,0.3,0.7,0.5c0,0,0.2,0.1,0.2,0.1c-0.2,0.2-0.2,0.2-0.3,0.4
			c-2.1,2.6-6.4,3.3-9.5,2.5c-1.5-0.4-2.8-1.3-3.6-2.3c-0.5-0.6-1-1.3-1-1.3s-1.6,1.4-2.1,1.8c-0.7,0.5-1.4,0.9-2.2,1.3
			c-1.7,0.7-3.5,0.9-5.3,0.9c-3.1-0.1-6.6-0.8-8.8-3.2c-2-2.3-2.3-5.8-2.4-8.7C5.3,36,7.2,29.1,12.4,24.3c4.4-4.2,11.1-6,17.1-5
			c1.6,0.3,2.8,1,4.4,0.9c1.7-0.2,3.3-0.3,5-0.5c0.9-0.1,1.7-0.2,2.6-0.3c0.4,0,1.2-0.1,1.7-0.2C43.1,19.3,43.1,19.3,43.1,19.4z"/>
		<path class="st0" d="M27.1,20.8c-3.5-0.3-5.5,1.9-6.8,4.9c-1.3,3.1-1.9,6.5-2.5,9.8c-0.8,3.9-1.3,7.9-1,11.9
			c0.2,2.5,1,5.7,4.2,5.3c4.1-0.5,5.7-5.1,6.3-8.6C28.5,37.5,30,30.8,31,24C31.2,22,28.8,20.9,27.1,20.8z M29.2,23.8
			c-0.1,0.5-0.2,0.9-0.3,1.4c-0.6,3.5-1.3,7-1.9,10.4c-0.5,2.7-1,5.4-1.4,8c-0.4,2.4-1.8,7.8-5.3,7.3c-2.4-0.3-1.9-5.5-1.8-7
			c0.1-3.5,0.7-6.9,1.4-10.3c0.6-2.6,1.1-5.4,2.1-7.9c0.6-1.3,1.3-2.6,2.7-3.1c0.7-0.3,1.7-0.3,2.4-0.2c0.3,0.1,0.7,0.2,1,0.3
			c0.3,0.1,0.9,0.5,1,0.7C29.2,23.7,29.2,23.7,29.2,23.8z"/>
		<path class="st0" d="M143,19.3c-1.1-1.1-2.6-1.7-4.1-1.9c-3.1-0.5-6.2,0.5-8.3,2.7c-0.1,0.1-0.3,0.3-0.4,0.5
			c0.1,0.2,0.1,0.4,0.2,0.5c0.7,3.2,0.2,6.8-0.4,9.9c-0.6,3.3-1.5,6.6-2.8,9.8c-0.7,1.6-1.4,3.1-2.3,4.6c-0.4,0.7-0.8,1.3-1.3,1.9
			c-0.1,0.1-0.3,0.4-0.5,0.5c0-0.7,0.1-1.6,0.1-2.2c0-0.8,0.1-1.6,0.1-2.4c0.1-1.8,0.1-3.5,0.1-5.3c0-3.3-0.1-6.6-0.4-9.9
			c-0.3-2.8-0.7-5.8-2.7-8c-2-2.2-4.5-2.9-7.4-2.8c-1.2,0.1-2.4,0.1-3.5,0.5c-1.1,0.3-2.6,1.1-3.4,2c-0.2,0.2-0.5,0.6-0.5,0.6
			c0.3,0.5,0.7,1.3,1,1.9c0.6,1.3,1.1,2.4,1.3,3.7c0.6,3,0.8,6.1,1.1,9.1c0.5,4.8,0.6,9.7,0.8,14.5c0,0.9,0.1,1.8,0.1,2.7
			c0,0.8,0,3.4,0,3.4s1.6,0.4,2.6,0.6c2.9,0.5,6.1,0.5,8.9-0.5c5.9-2,10.3-7.3,13.9-12.2c2.3-3.2,4.4-6.5,6-10.1
			c1.5-3.4,2.9-7.2,2.8-10.9C144.2,21.4,143.9,20.2,143,19.3z M141.6,27.8c-1.9,6.4-5.4,12.3-9.6,17.4c-3.6,4.4-8.3,9.2-14.3,9.6
			c-1.5,0.1-3.2,0-4.7-0.2c-0.5-0.1-1.3-0.3-1.3-0.3s-0.1-2.3-0.1-3c-0.1-2.8-0.2-5.7-0.3-8.5c-0.2-4.3-0.6-8.7-1.1-13
			c-0.3-2.4-0.5-4.9-1.5-7.2c-0.2-0.4-1.1-2-1.1-2c0.4-0.4,1.9-1,2.1-1.1c0.6-0.2,1.2-0.3,1.7-0.4c3.1-0.4,6.1,0,8.1,2.8
			c1.7,2.4,1.7,5.8,1.9,8.6c0.2,3,0.2,6.1,0.2,9.1c0,1.5-0.1,2.9-0.1,4.4c-0.1,1.6-0.2,3.3-0.3,4.9c0,0.8,0.6,1.5,1.4,1.4
			c0.7,0,1.9-1.3,2.4-2c2-2.6,3.4-5.7,4.5-8.8c1.2-3.3,2-6.7,2.5-10.1c0.4-2.7,0.7-5.7,0.2-8.4c1.8-1.7,5.1-2.6,7.8-1.5
			c1.7,0.7,2.5,1.6,2.4,3.4C142.4,24.5,142.1,26.2,141.6,27.8z"/>
		<path class="st0" d="M84.2,19.3c-1.1-1.1-2.6-1.7-4.1-1.9c-3.1-0.5-6.2,0.5-8.3,2.7c-0.1,0.1-0.3,0.3-0.4,0.5
			c0.1,0.2,0.1,0.4,0.2,0.5c0.7,3.2,0.2,6.8-0.4,9.9c-0.6,3.3-1.5,6.6-2.8,9.8c-0.7,1.6-1.4,3.1-2.3,4.6c-0.4,0.7-0.8,1.3-1.3,1.9
			c-0.1,0.1-0.3,0.4-0.5,0.5c0-0.7,0.1-1.6,0.1-2.2c0-0.8,0.1-1.6,0.1-2.4c0.1-1.8,0.1-3.5,0.1-5.3c0-3.3-0.1-6.6-0.4-9.9
			c-0.3-2.8-0.7-5.8-2.7-8c-2-2.2-4.5-2.9-7.4-2.8c-1.2,0.1-2.4,0.1-3.5,0.5c-1.1,0.3-2.6,1.1-3.4,2c-0.2,0.2-0.5,0.6-0.5,0.6
			c0.3,0.5,0.7,1.3,1,1.9c0.6,1.3,1.1,2.4,1.3,3.7c0.6,3,0.8,6.1,1.1,9.1c0.5,4.8,0.6,9.7,0.8,14.5c0,0.9,0.1,1.8,0.1,2.7
			c0,0.8,0,3.4,0,3.4s1.6,0.4,2.6,0.6c2.9,0.5,6.1,0.5,8.9-0.5c5.9-2,10.3-7.3,13.9-12.2c2.3-3.2,4.4-6.5,6-10.1
			c1.5-3.4,2.9-7.2,2.8-10.9C85.4,21.4,85.1,20.2,84.2,19.3z M82.8,27.8c-1.9,6.4-5.4,12.3-9.6,17.4c-3.6,4.4-8.3,9.2-14.3,9.6
			c-1.5,0.1-3.2,0-4.7-0.2c-0.5-0.1-1.3-0.3-1.3-0.3s-0.1-2.3-0.1-3c-0.1-2.8-0.2-5.7-0.3-8.5c-0.2-4.3-0.6-8.7-1.1-13
			c-0.3-2.4-0.5-4.9-1.5-7.2c-0.2-0.4-1.1-2-1.1-2c0.4-0.4,1.9-1,2.1-1.1c0.6-0.2,1.2-0.3,1.7-0.4c3.1-0.4,6.1,0,8.1,2.8
			c1.7,2.4,1.7,5.8,1.9,8.6c0.2,3,0.2,6.1,0.2,9.1c0,1.5-0.1,2.9-0.1,4.4c-0.1,1.6-0.2,3.3-0.3,4.9c0,0.8,0.6,1.5,1.4,1.4
			c0.7,0,1.9-1.3,2.4-2c2-2.6,3.4-5.7,4.5-8.8c1.2-3.3,2-6.7,2.5-10.1c0.4-2.7,0.7-5.7,0.2-8.4c1.8-1.7,5.1-2.6,7.8-1.5
			c1.7,0.7,2.5,1.6,2.4,3.4C83.6,24.5,83.3,26.2,82.8,27.8z"/>
		<path class="st0" d="M165.3,8.7c-0.3-4.1-4.6-5.5-8.2-5.4c-3.9,0.1-7.9,2.1-8.2,6.3c0,0.1,0,0.1,0,0.2c0.1,2,0.7,3.4,2.5,4.5
			c1.9,1.1,4.3,1.4,6.5,1.3C161.8,15.3,165.6,13.1,165.3,8.7z M157.9,13.8c-1.5,0.1-3.2,0-4.6-0.5c-1.6-0.6-2.5-1.6-2.5-3.4
			c0.1-3.3,3.3-4.6,6.2-4.7c2.5-0.1,6.4,0.4,6.7,3.6C163.8,12.1,160.8,13.6,157.9,13.8z"/>
		<path class="st0" d="M106.3,8.7c-0.3-4.1-4.6-5.5-8.2-5.4c-3.9,0.1-7.9,2.1-8.2,6.3c0,0.1,0,0.1,0,0.2c0.1,2,0.7,3.4,2.5,4.5
			c1.9,1.1,4.3,1.4,6.5,1.3C102.8,15.3,106.6,13.1,106.3,8.7z M98.8,13.8c-1.5,0.1-3.2,0-4.6-0.5c-1.6-0.6-2.5-1.6-2.5-3.4
			c0.1-3.3,3.3-4.6,6.2-4.7c2.5-0.1,6.4,0.4,6.7,3.6C104.8,12.1,101.8,13.6,98.8,13.8z"/>
	</g>
</g>
</svg>
