<?xml version="1.0" encoding="utf-8"?>
<!-- Generator: Adobe Illustrator 21.0.1, SVG Export Plug-In . SVG Version: 6.00 Build 0)  -->
<svg version="1.1" id="cover" xmlns="http://www.w3.org/2000/svg" xmlns:xlink="http://www.w3.org/1999/xlink" x="0px" y="0px"
	 viewBox="0 0 169.3 132" style="enable-background:new 0 0 169.3 132;" xml:space="preserve">
<style type="text/css">
	.st0{fill-rule:evenodd;clip-rule:evenodd;fill:#00926A;}
	.st1{fill-rule:evenodd;clip-rule:evenodd;fill:#EC1C24;}
</style>
<g id="logo">
	<g id="letters_1_">
		<path d="M89.3,89.4c0,0-0.2,1.1-0.3,1.7c-0.3,1.5-0.6,2.9-0.8,4.4c-0.7,3.4-1.3,6.8-2,10.2c-0.7,3.2-1.3,6.3-1.7,9.5
			c-0.3,2.6-0.7,5.3,0.2,7.8c0,0.1,0.3,0.5,0.3,0.6c3.3,4.5,8.9,4.8,13.3,2.3c0.9-0.5,2.5-1.7,3.3-3.1c0.3-0.6,0.5-1.3,0.5-1.3
			s-1.4-0.6-1.9-1.2c-0.4-0.5-0.7-1.2-0.8-1.8c-0.2-1.1-0.1-2.3,0.1-3.4c1-6.2,2.4-12.4,3.6-18.6c0.4-2.2,0.9-4.3,1.3-6.6
			c0.1-0.6,0.4-2,0.4-2L89.3,89.4z M99.9,122.3c0,0-1.1,1.1-1.3,1.4c-1,0.9-2.3,1.4-3.6,1.6c-3.3,0.7-6.4,0.3-8.6-2.9
			c-0.9-2-0.5-4.7-0.2-6.8c0.3-2.6,0.8-5.3,1.4-7.9c0.6-2.8,1.2-5.6,1.7-8.3c0.3-1.6,0.6-3.2,0.9-4.8c0.2-1,0.5-2.4,0.7-3.5
			c0,0,11-1,11.7-1.1c0,0.1-0.5,2.6-0.7,3.8c-1,5.3-2.2,10.7-3.3,16.1c-0.7,3.5-2.4,8.5,0.2,11.7C99.1,121.7,99.9,122.3,99.9,122.3"
			/>
		<path d="M148.3,89.4c0,0-0.2,1.1-0.3,1.7c-0.3,1.5-0.6,2.9-0.8,4.4c-0.7,3.4-1.3,6.8-2,10.2c-0.7,3.2-1.3,6.3-1.7,9.5
			c-0.3,2.6-0.7,5.3,0.2,7.8c0,0.1,0.3,0.5,0.3,0.6c3.3,4.5,8.9,4.8,13.3,2.3c0.9-0.5,2.5-1.7,3.3-3.1c0.3-0.6,0.5-1.3,0.5-1.3
			s-1.4-0.6-1.9-1.2c-0.4-0.5-0.7-1.2-0.8-1.8c-0.2-1.1-0.1-2.3,0.1-3.4c1-6.2,2.4-12.4,3.6-18.6c0.4-2.2,0.9-4.3,1.3-6.6
			c0.1-0.6,0.4-2,0.4-2L148.3,89.4z M158.9,122.3c0,0-1.1,1.1-1.3,1.4c-1,0.9-2.3,1.4-3.6,1.6c-3.3,0.7-6.4,0.3-8.6-2.9
			c-0.9-2-0.5-4.7-0.2-6.8c0.3-2.6,0.8-5.3,1.4-7.9c0.6-2.8,1.2-5.6,1.7-8.3c0.3-1.6,0.6-3.2,0.9-4.8c0.2-1,0.5-2.4,0.7-3.5
			c0,0,11-1,11.7-1.1c0,0.1-0.5,2.6-0.7,3.8c-1,5.3-2.2,10.7-3.3,16.1c-0.7,3.5-2.4,8.5,0.2,11.7
			C158.2,121.7,158.9,122.3,158.9,122.3"/>
		<path d="M45.2,87.8c-1.5,0.1-4.6,0.5-6.3,0.7c-1.8,0.2-3.5,0.4-5.3,0.5c-0.6,0.1-0.8,0-1.4-0.2c-1.6-0.6-3.4-0.9-5.1-0.9
			c-6.2-0.2-12.3,1.8-16.7,6.3c-5.1,5.2-6.9,12.3-6.6,19.4c0.1,2.9,0.4,6.2,2,8.7c1.7,2.7,4.7,4.1,7.8,4.6c3.5,0.6,7.4,0.5,10.6-1.4
			c0.5-0.3,1.6-0.9,1.9-1.5c0,0,0,0,0,0c0.2,0.3,0.4,0.6,0.7,0.8c1.1,1.1,2.6,1.8,4.1,2.1c3.5,0.7,7.5,0,10.2-2.5
			c0.7-0.6,2.3-2.4,2.3-2.4s-0.6-0.4-0.8-0.6c-0.5-0.4-1.4-1-1.8-1.5c-0.6-0.7-0.9-1.6-1-2.5c0-2.5,0.7-5,1.2-7.4
			c0.8-4,1.5-8,2.3-12c0.5-2.8,1.2-5.6,1.6-8.3C45,88.9,45.2,87.8,45.2,87.8z M43.1,90c-0.5,2.7-1,5.5-1.6,8.2
			c-0.8,4-1.5,7.9-2.3,11.9c-0.5,2.4-1.1,4.8-1.2,7.3c0,0.1,0,0.1,0,0.2c0,0.1,0,0.1,0,0.2c0.1,1.1,0.4,2.1,1.1,3
			c0.2,0.3,0.5,0.6,0.8,0.9c0.2,0.2,0.4,0.3,0.7,0.5c0,0,0.2,0.1,0.2,0.1c-0.2,0.2-0.2,0.2-0.3,0.4c-2.1,2.6-6.4,3.3-9.5,2.5
			c-1.5-0.4-2.8-1.3-3.6-2.3c-0.5-0.6-1-1.3-1-1.3s-1.6,1.4-2.1,1.8c-0.7,0.5-1.4,0.9-2.2,1.3c-1.7,0.7-3.5,0.9-5.3,0.9
			c-3.1-0.1-6.6-0.8-8.8-3.2c-2-2.3-2.3-5.8-2.4-8.7c-0.3-6.9,1.6-13.8,6.7-18.7c4.4-4.2,11.1-6,17.1-5c1.6,0.3,2.8,1,4.4,0.9
			c1.7-0.2,3.3-0.3,5-0.5c0.9-0.1,1.7-0.2,2.6-0.3c0.4,0,1.2-0.1,1.7-0.2C43.1,89.9,43.1,90,43.1,90z"/>
		<path d="M27.1,91.5c-3.5-0.3-5.5,1.9-6.8,4.9c-1.3,3.1-1.9,6.5-2.5,9.8c-0.8,3.9-1.3,7.9-1,11.9c0.2,2.5,1,5.7,4.2,5.3
			c4.1-0.5,5.7-5.1,6.3-8.6c1.2-6.7,2.7-13.4,3.6-20.2C31.2,92.7,28.8,91.6,27.1,91.5z M29.2,94.5C29.1,95,29,95.4,29,95.9
			c-0.6,3.5-1.3,7-1.9,10.4c-0.5,2.7-1,5.4-1.4,8c-0.4,2.4-1.8,7.8-5.3,7.3c-2.4-0.3-1.9-5.5-1.8-7c0.1-3.5,0.7-6.9,1.4-10.3
			c0.6-2.6,1.1-5.4,2.1-7.9c0.6-1.3,1.3-2.6,2.7-3.1c0.7-0.3,1.7-0.3,2.4-0.2c0.3,0.1,0.7,0.2,1,0.3c0.3,0.1,0.9,0.5,1,0.7
			C29.2,94.3,29.2,94.4,29.2,94.5z"/>
		<path d="M143,90c-1.1-1.1-2.6-1.7-4.1-1.9c-3.1-0.5-6.2,0.5-8.3,2.7c-0.1,0.1-0.3,0.3-0.4,0.5c0.1,0.2,0.1,0.4,0.2,0.5
			c0.7,3.2,0.2,6.8-0.4,9.9c-0.6,3.3-1.5,6.6-2.8,9.8c-0.7,1.6-1.4,3.1-2.3,4.6c-0.4,0.7-0.8,1.3-1.3,1.9c-0.1,0.1-0.3,0.4-0.5,0.5
			c0-0.7,0.1-1.6,0.1-2.2c0-0.8,0.1-1.6,0.1-2.4c0.1-1.8,0.1-3.5,0.1-5.3c0-3.3-0.1-6.6-0.4-9.9c-0.3-2.8-0.7-5.8-2.7-8
			c-2-2.2-4.5-2.9-7.4-2.8c-1.2,0.1-2.4,0.1-3.5,0.5c-1.1,0.3-2.6,1.1-3.4,2c-0.2,0.2-0.5,0.6-0.5,0.6c0.3,0.5,0.7,1.3,1,1.9
			c0.6,1.3,1.1,2.4,1.3,3.7c0.6,3,0.8,6.1,1.1,9.1c0.5,4.8,0.6,9.7,0.8,14.5c0,0.9,0.1,1.8,0.1,2.7c0,0.8,0,3.4,0,3.4
			s1.6,0.4,2.6,0.6c2.9,0.5,6.1,0.5,8.9-0.5c5.9-2,10.3-7.3,13.9-12.2c2.3-3.2,4.4-6.5,6-10.1c1.5-3.4,2.9-7.2,2.8-10.9
			C144.2,92,143.9,90.9,143,90z M141.6,98.4c-1.9,6.4-5.4,12.3-9.6,17.4c-3.6,4.4-8.3,9.2-14.3,9.6c-1.5,0.1-3.2,0-4.7-0.2
			c-0.5-0.1-1.3-0.3-1.3-0.3s-0.1-2.3-0.1-3c-0.1-2.8-0.2-5.7-0.3-8.5c-0.2-4.3-0.6-8.7-1.1-13c-0.3-2.4-0.5-4.9-1.5-7.2
			c-0.2-0.4-1.1-2-1.1-2c0.4-0.4,1.9-1,2.1-1.1c0.6-0.2,1.2-0.3,1.7-0.4c3.1-0.4,6.1,0,8.1,2.8c1.7,2.4,1.7,5.8,1.9,8.6
			c0.2,3,0.2,6.1,0.2,9.1c0,1.5-0.1,2.9-0.1,4.4c-0.1,1.6-0.2,3.3-0.3,4.9c0,0.8,0.6,1.5,1.4,1.4c0.7,0,1.9-1.3,2.4-2
			c2-2.6,3.4-5.7,4.5-8.8c1.2-3.3,2-6.7,2.5-10.1c0.4-2.7,0.7-5.7,0.2-8.4c1.8-1.7,5.1-2.6,7.8-1.5c1.7,0.7,2.5,1.6,2.4,3.4
			C142.4,95.2,142.1,96.8,141.6,98.4z"/>
		<path d="M84.2,90c-1.1-1.1-2.6-1.7-4.1-1.9c-3.1-0.5-6.2,0.5-8.3,2.7c-0.1,0.1-0.3,0.3-0.4,0.5c0.1,0.2,0.1,0.4,0.2,0.5
			c0.7,3.2,0.2,6.8-0.4,9.9c-0.6,3.3-1.5,6.6-2.8,9.8c-0.7,1.6-1.4,3.1-2.3,4.6c-0.4,0.7-0.8,1.3-1.3,1.9c-0.1,0.1-0.3,0.4-0.5,0.5
			c0-0.7,0.1-1.6,0.1-2.2c0-0.8,0.1-1.6,0.1-2.4c0.1-1.8,0.1-3.5,0.1-5.3c0-3.3-0.1-6.6-0.4-9.9c-0.3-2.8-0.7-5.8-2.7-8
			c-2-2.2-4.5-2.9-7.4-2.8c-1.2,0.1-2.4,0.1-3.5,0.5c-1.1,0.3-2.6,1.1-3.4,2C47,90.7,46.7,91,46.7,91c0.3,0.5,0.7,1.3,1,1.9
			c0.6,1.3,1.1,2.4,1.3,3.7c0.6,3,0.8,6.1,1.1,9.1c0.5,4.8,0.6,9.7,0.8,14.5c0,0.9,0.1,1.8,0.1,2.7c0,0.8,0,3.4,0,3.4
			s1.6,0.4,2.6,0.6c2.9,0.5,6.1,0.5,8.9-0.5c5.9-2,10.3-7.3,13.9-12.2c2.3-3.2,4.4-6.5,6-10.1c1.5-3.4,2.9-7.2,2.8-10.9
			C85.4,92,85.1,90.9,84.2,90z M82.8,98.4c-1.9,6.4-5.4,12.3-9.6,17.4c-3.6,4.4-8.3,9.2-14.3,9.6c-1.5,0.1-3.2,0-4.7-0.2
			c-0.5-0.1-1.3-0.3-1.3-0.3s-0.1-2.3-0.1-3c-0.1-2.8-0.2-5.7-0.3-8.5c-0.2-4.3-0.6-8.7-1.1-13c-0.3-2.4-0.5-4.9-1.5-7.2
			c-0.2-0.4-1.1-2-1.1-2c0.4-0.4,1.9-1,2.1-1.1c0.6-0.2,1.2-0.3,1.7-0.4c3.1-0.4,6.1,0,8.1,2.8c1.7,2.4,1.7,5.8,1.9,8.6
			c0.2,3,0.2,6.1,0.2,9.1c0,1.5-0.1,2.9-0.1,4.4c-0.1,1.6-0.2,3.3-0.3,4.9c0,0.8,0.6,1.5,1.4,1.4c0.7,0,1.9-1.3,2.4-2
			c2-2.6,3.4-5.7,4.5-8.8c1.2-3.3,2-6.7,2.5-10.1c0.4-2.7,0.7-5.7,0.2-8.4c1.8-1.7,5.1-2.6,7.8-1.5c1.7,0.7,2.5,1.6,2.4,3.4
			C83.6,95.2,83.3,96.8,82.8,98.4z"/>
		<path d="M165.9,79.4c-0.3-4.1-4.6-5.5-8.2-5.4c-3.9,0.1-7.9,2.1-8.2,6.3c0,0.1,0,0.1,0,0.2c0.1,2,0.7,3.4,2.5,4.5
			c1.9,1.1,4.3,1.4,6.5,1.3C162.3,85.9,166.2,83.8,165.9,79.4z M158.4,84.5c-1.5,0.1-3.2,0-4.6-0.5c-1.6-0.6-2.5-1.6-2.5-3.4
			c0.1-3.3,3.3-4.6,6.2-4.7c2.5-0.1,6.4,0.4,6.7,3.6C164.4,82.7,161.4,84.2,158.4,84.5z"/>
	</g>
	<g>
		<path class="st0" d="M102.1,83.5c-2.6-13.6,2.1-21.6,8.4-27c5.6-4.8,12.8-8.1,16.1-13.8C127.9,73.8,115.4,73.8,102.1,83.5"/>
		<path class="st1" d="M91.1,83.5c1.3-24.4-3.5-38.3-11.5-47.5C67.1,21.6,47.2,18.1,37.2,5.8c-0.9,20.1,2.7,36.5,8.3,48.2
			C56.5,76.8,76.3,84.6,91.1,83.5z"/>
		<path d="M124.8,43c0-1.1-0.3-3.9-0.3-3.9s-1.9,2.3-2.6,3.1c-1,1.2-1.9,2.3-3,3.4c-4.5,4.2-10.1,7.2-14.3,11.8
			c-2.5,2.7-4.4,6-5.4,9.6c-1.3,4.8-0.9,9.9,0,14.7c0.1,0.3,0.3,1.2,0.3,1.2s0.8-0.6,1.1-0.8c4.8-3.3,10.1-5.6,14.7-9.1
			c4.9-3.7,7.5-9.1,8.6-15C124.8,53,125,47.9,124.8,43z M122.9,50c-0.1,2.2-0.3,4.3-0.6,6.5c-0.9,5.6-3,10.8-7.5,14.5
			c-4.3,3.5-9.5,5.8-14.1,8.8c-1.1-7-0.6-14.1,3.9-19.9c3.6-4.6,8.7-7.6,13.1-11.2c1.1-0.9,2.1-1.8,3.1-2.8c0.5-0.5,0.9-0.9,1.3-1.4
			c0.1-0.1,0.5-0.5,0.8-0.9c0,0.2,0,0.4,0,0.5c0,0.6,0,1.2,0,1.8C123,47.4,123,48.7,122.9,50z"/>
		<path d="M56.3,15.9c-4.4-2.3-8.8-4.8-12.4-8.1C43,7,41.9,6,41.1,5.2c-0.5-0.5-1.8-2-1.8-2S39.1,9,39.1,9.8
			C39,15.4,39.3,21,40,26.5c2,15.8,7.6,31.7,19.4,42.8c8.2,7.7,19.2,12.7,30.5,12.9c1.2,0,2.3,0,3.5-0.1c0.2,0,0.8-0.1,0.8-0.1
			s0.1-0.5,0.1-0.8c0.8-16.1-0.6-33.8-11.2-46.9C76.1,25.7,66,21,56.3,15.9z M92.6,80.4c-10.2,0.5-20.3-3.1-28.4-9.3
			c-11.8-9-18.4-23-21.3-37.2c-1-4.8-1.6-9.8-1.9-14.7c-0.2-2.7-0.2-5.4-0.2-8.1c0-0.7,0-1.5,0-2.2c0-0.3,0-1.4,0-1.4
			s0.4,0.3,0.5,0.5c3.4,3.4,7.5,6,11.6,8.3c9,5,18.8,9,26.1,16.5c10.5,10.7,13.5,26,13.6,40.5C92.8,75.6,92.7,78,92.6,80.4z"/>
	</g>
</g>
</svg>
