<svg xmlns="http://www.w3.org/2000/svg" width="58" height="33" viewBox="0 0 58 33">
  <metadata><?xpacket begin="﻿" id="W5M0MpCehiHzreSzNTczkc9d"?>
<x:xmpmeta xmlns:x="adobe:ns:meta/" x:xmptk="Adobe XMP Core 5.6-c138 79.159824, 2016/09/14-01:09:01        ">
   <rdf:RDF xmlns:rdf="http://www.w3.org/1999/02/22-rdf-syntax-ns#">
      <rdf:Description rdf:about=""/>
   </rdf:RDF>
</x:xmpmeta>
                                                                                                    
                                                                                                    
                                                                                                    
                                                                                                    
                                                                                                    
                                                                                                    
                                                                                                    
                                                                                                    
                                                                                                    
                                                                                                    
                                                                                                    
                                                                                                    
                                                                                                    
                                                                                                    
                                                                                                    
                                                                                                    
                                                                                                    
                                                                                                    
                                                                                                    
                                                                                                    
                           
<?xpacket end="w"?></metadata>
<defs>
    <style>
      .cls-1 {
        fill-rule: evenodd;
      }
    </style>
  </defs>
  <path id="Forma_1" data-name="Forma 1" class="cls-1" d="M231.426,1590.8c0.825-1.07,1.48-1.92,1.963-2.56q5.225-6.93,4.53-8.86l-0.181-.3a1.771,1.771,0,0,0-.937-0.5,4.787,4.787,0,0,0-1.932-.07l-8.7.06a2.442,2.442,0,0,0-.6.01,2.33,2.33,0,0,0-.393.09c-0.061.03-.111,0.06-0.151,0.08l-0.12.09a1.362,1.362,0,0,0-.332.32,2,2,0,0,0-.3.52,49.292,49.292,0,0,1-3.232,6.78q-1.118,1.86-2.053,3.24a15.59,15.59,0,0,1-1.57,2.01,11.1,11.1,0,0,1-1.148,1.04,1.113,1.113,0,0,1-.785.33q-0.272-.06-0.513-0.12a1.985,1.985,0,0,1-.68-0.73,3.423,3.423,0,0,1-.347-1.18c-0.06-.47-0.1-0.88-0.105-1.22s-0.006-.82.015-1.44,0.03-1.05.03-1.27c0-.76.015-1.59,0.045-2.48s0.056-1.6.076-2.13,0.03-1.07.03-1.65a6.958,6.958,0,0,0-.106-1.37,5.066,5.066,0,0,0-.317-0.97,1.608,1.608,0,0,0-.62-0.72,3.787,3.787,0,0,0-1.011-.41,20.207,20.207,0,0,0-4.077-.39c-3.745-.04-6.15.21-7.217,0.73a4.064,4.064,0,0,0-1.148.9q-0.544.66-.15,0.72a3.675,3.675,0,0,1,2.566,1.3l0.181,0.36a5.714,5.714,0,0,1,.423,1.38,14.1,14.1,0,0,1,.272,2.2,23.328,23.328,0,0,1,0,3.77q-0.151,1.56-.287,2.43a4.8,4.8,0,0,1-.407,1.42,5.776,5.776,0,0,1-.363.66,0.515,0.515,0,0,1-.15.15,2.269,2.269,0,0,1-.816.15,1.923,1.923,0,0,1-1.027-.42,6.845,6.845,0,0,1-1.253-1.16,15.535,15.535,0,0,1-1.465-2.06c-0.543-.88-1.107-1.93-1.691-3.13l-0.482-.88c-0.3-.56-0.715-1.37-1.239-2.45s-0.987-2.11-1.389-3.12a1.98,1.98,0,0,0-.724-0.96l-0.151-.09a1.753,1.753,0,0,0-.484-0.25,2.763,2.763,0,0,0-.694-0.2l-8.275.06a2.111,2.111,0,0,0-1.721.57l-0.12.18a0.957,0.957,0,0,0-.091.48,2.447,2.447,0,0,0,.181.82q1.813,4.245,3.941,8.19t3.7,6.35c1.047,1.61,2.114,3.12,3.2,4.55s1.807,2.34,2.159,2.74,0.629,0.7.83,0.9l0.755,0.72a17.787,17.787,0,0,0,2.129,1.74,36,36,0,0,0,3.111,1.98,16.5,16.5,0,0,0,3.97,1.6,13.82,13.82,0,0,0,4.409.5h3.473a2.363,2.363,0,0,0,1.6-.67l0.121-.15a2,2,0,0,0,.227-0.55,3.09,3.09,0,0,0,.106-0.83,9.828,9.828,0,0,1,.2-2.33,6.057,6.057,0,0,1,.513-1.57,3.86,3.86,0,0,1,.65-0.89,3.151,3.151,0,0,1,.513-0.44c0.1-.04.181-0.08,0.241-0.1a1.9,1.9,0,0,1,1.707.47,9.993,9.993,0,0,1,1.842,1.74c0.574,0.7,1.263,1.47,2.069,2.34a14.058,14.058,0,0,0,2.113,1.92l0.6,0.37a7.341,7.341,0,0,0,1.57.66,3.407,3.407,0,0,0,1.691.15l7.731-.12a3.511,3.511,0,0,0,1.781-.38,1.5,1.5,0,0,0,.755-0.83,2.315,2.315,0,0,0,.016-1.02,3.791,3.791,0,0,0-.212-0.8,3.74,3.74,0,0,0-.2-0.37,29.938,29.938,0,0,0-5.767-6.66l-0.061-.06-0.03-.03-0.03-.03h-0.03a34.05,34.05,0,0,1-2.446-2.47,2.313,2.313,0,0,1-.423-2.44A22.4,22.4,0,0,1,231.426,1590.8Z" transform="translate(-180 -1577)"/>
</svg>
