<?xml version="1.0" encoding="utf-8"?>
<!-- Generator: Adobe Illustrator 21.0.1, SVG Export Plug-In . SVG Version: 6.00 Build 0)  -->
<svg version="1.1" id="Слой_1" xmlns="http://www.w3.org/2000/svg" xmlns:xlink="http://www.w3.org/1999/xlink" x="0px" y="0px"
	 viewBox="0 0 248 174.5" style="enable-background:new 0 0 248 174.5;" xml:space="preserve">
<style type="text/css">
	.st0{fill:#FFFFFF;}
</style>
<g>
	<g>
		<path class="st0" d="M238.3,15c-8.9-10.6-25.5-15-57-15H66.7c-32.3,0-49.1,4.6-58,15.9C0,27,0,43.3,0,65.8v42.9
			c0,43.6,10.3,65.8,66.7,65.8h114.6c27.4,0,42.5-3.8,52.4-13.2c10.1-9.6,14.4-25.4,14.4-52.6V65.8C248,42,247.3,25.7,238.3,15
			L238.3,15z M159.2,93.2l-52,27.2c-1.2,0.6-2.4,0.9-3.7,0.9c-1.4,0-2.9-0.4-4.1-1.2c-2.4-1.4-3.9-4-3.9-6.8V59.1
			c0-2.8,1.5-5.4,3.8-6.8c2.4-1.5,5.4-1.6,7.8-0.3l52,27c2.6,1.4,4.3,4.1,4.3,7.1C163.5,89.1,161.9,91.8,159.2,93.2L159.2,93.2z
			 M159.2,93.2"/>
	</g>
</g>
</svg>
